<svg width="5261" height="3484" xmlns="http://www.w3.org/2000/svg">
 <defs>
  <style type="text/css">
   <![CDATA[
    .fil0 {fill:#1D1819}
    .fil1 {fill:#FEFEFE;fill-rule:nonzero}
   ]]>
  </style>
 </defs>
 <g>
  <title>background</title>
  <rect fill="none" id="canvas_background" height="3486" width="5263" y="-1" x="-1"/>
 </g>
 <g>
  <title>Layer 1</title>
  <g id="图层_x0020_1">
   <metadata transform="translate(-160.0109100341797,-80.00545501708984) translate(-1480.1009521484375,-2920.198974609375) translate(-2100.14306640625,0) " id="CorelCorpID_0Corel-Layer"/>
   <rect x="-3740.254929" y="-3000.20443" id="svg_1" height="9511" width="12788" class="fil0"/>
   <path id="svg_2" d="m1551.745071,1317.79557c0,109 -89,198 -198,198c-109,0 -198,-89 -198,-198l0,-473l-123,0l0,473c0,109 -89,198 -198,198c-109,0 -198,-89 -198,-198l0,-473l-123,0l0,473c0,177 144,321 321,321c107,0 201,-53 260,-133c58,80 152,133 259,133c177,0 321,-144 321,-321l0,-473l-123,0l0,473zm1618,728c-14,4 -24,6 -24,6l-25,7l260,0c11,0 20,8 20,19l0,38l-534,0l0,183c0,115 -12,268 -90,375l-45,-43c70,-97 77,-228 77,-332l0,-216c0,-14 11,-24 25,-24l283,0c-6,-28 -21,-62 -33,-91l42,-9c5,-1 10,1 13,6c0,0 23,47 31,81zm333,453c-1,-9 2,-14 9,-15l62,-10l0,-278l-93,0l0,-45c0,-5 5,-10 10,-10l83,0l0,-183l41,0c6,0 12,6 12,13l0,170l73,0c6,0 11,5 11,10l0,45l-84,0l0,270l19,-4l21,-3c7,-1 14,3 16,10l1,44l-181,28l0,-42zm223,-240l0,-46c19,-3 50,-19 80,-39c25,-16 99,-79 164,-142l-244,0l0,-42c0,-8 6,-14 14,-14l330,0c8,0 15,7 14,15l0,14c-80,75 -160,149 -235,198l290,0c8,0 14,7 14,15c-1,18 -2,47 -3,52c-15,276 -25,339 -51,372c-15,19 -30,27 -52,29c-18,2 -33,1 -86,1l-16,-52l75,0c12,0 17,-3 28,-17c21,-33 32,-114 47,-344l-52,0c-52,185 -142,322 -271,411l-43,-34c129,-79 214,-209 262,-377l-64,0c-35,101 -96,184 -169,238l-40,-34c69,-46 123,-118 155,-204l-147,0zm-8,206l2,6l-2,-6zm-1439,-153l264,0l0,-139c0,-7 -6,-13 -14,-13l-228,0c-12,0 -22,10 -22,21l0,131zm372,234c-5,100 -20,127 -66,127l-71,0c-55,0 -68,-18 -68,-76l0,-233l-70,0c-13,153 -47,252 -202,309l-34,-46c139,-46 167,-132 178,-263l-95,0l0,-232c0,-13 11,-24 25,-24l78,0c-12,-36 -41,-92 -69,-135l34,-12c9,-4 19,-1 24,7c26,39 52,87 63,120l-50,20l120,0c22,-37 46,-89 62,-132c6,-14 21,-21 35,-16l32,10c-21,46 -46,97 -68,138l70,0c12,0 23,10 23,22l0,234l-101,0l0,233c0,19 3,23 20,23l58,0c17,0 20,-23 23,-107l49,33zm-482,-298c-9,-38 -32,-100 -54,-146l22,-10c10,-4 22,0 26,9c21,43 42,93 49,125l-43,22zm-118,-289l43,0c7,0 13,5 13,12l0,701l-56,0l0,-713zm-112,349c19,-46 32,-121 38,-181c1,-10 11,-17 21,-15l27,4c-4,64 -18,152 -38,209l-48,-17zm-486,-151c-9,39 -19,95 -27,126l227,0c4,-30 7,-82 9,-112c0,-8 -6,-14 -14,-14l-195,0zm-123,324l0,139l376,0l0,-139c0,-17 -14,-30 -30,-30l-316,0c-17,0 -30,13 -30,30zm-27,-82l431,0c16,0 29,13 29,28l0,245l-57,0l-376,0l-56,0l0,-245c0,-15 13,-28 29,-28zm557,-90l0,28l-686,0l0,-31c0,-13 10,-23 22,-23l170,0c10,-31 19,-87 28,-126l-127,0l0,-40c0,-6 4,-11 10,-11l130,0c6,-33 13,-65 19,-95l-194,0l0,-43c0,-5 5,-10 10,-10l556,0c5,0 10,5 10,10l0,43l-324,0c-7,30 -13,63 -20,95l245,0c6,0 11,5 11,11c-2,48 -7,119 -11,166l125,0c14,0 26,12 26,26zm1042,-1192c-22,33 -70,33 -93,0l-186,-272l-142,0l255,377c35,52 53,113 53,175l0,242l122,0l0,-273c0,-43 12,-85 36,-120l266,-401l-129,0l-182,272zm913,206c0,110 -90,200 -200,200c-110,0 -200,-90 -200,-200l0,-478l-124,0l0,478c0,134 81,249 197,298c18,8 55,18 99,18c14,0 27,-3 40,-5l6,-1c8,-1 22,-3 22,-3c50,-6 98,-18 142,-18c55,0 94,9 119,16l23,11l0,-794l-124,0l0,478zm648,199c-77,14 -156,-5 -218,-52c-65,-48 -110,-142 -113,-227c-1,-14 0,-28 2,-41c5,-39 19,-76 40,-110c42,-67 112,-115 191,-129c137,-24 288,29 315,184c0,0 -261,45 -404,71c-14,73 31,105 31,105l504,-88c-3,-31 -3,-29 -8,-61c-45,-253 -243,-360 -458,-322c-215,38 -359,244 -321,459c38,216 243,360 458,322c128,-22 262,-116 313,-260l-147,27c-31,72 -128,112 -185,122zm-2184,-199c0,110 -90,200 -200,200c-111,0 -200,-90 -200,-200l0,-478l-124,0l0,478c0,134 81,249 196,298c19,8 56,18 100,18c14,0 27,-3 40,-5l6,-1c7,-1 22,-3 22,-3c50,-6 98,-18 142,-18c54,0 94,9 119,16l23,11l0,-794l-124,0l0,478z" class="fil1"/>
  </g>
 </g>
</svg>